<svg width="109" height="125" viewBox="0 0 109 125" fill="none" xmlns="http://www.w3.org/2000/svg">
<path fill-rule="evenodd" clip-rule="evenodd" d="M108.071 31.25L54.5 0L0.928589 31.25V93.75L54.5 125L108.071 93.75V31.25ZM101.922 34.8372L54.5 7.17439L7.07807 34.8372V90.1628L54.5 117.826L101.922 90.1628V34.8372Z" fill="#FAA716"/>
<path d="M65.0147 43.2334L65.1998 43.0464H74.4854L94.0775 62.8414L89.2626 67.7062L89.3474 67.7918L75.3308 81.9536H65.675L84.5064 62.9271L65.0147 43.2334Z" fill="#FAA716"/>
<path d="M44.3718 43.2334L44.1867 43.0464H34.9011L15.309 62.8414L20.1239 67.7062L20.0391 67.7918L34.0557 81.9536H43.7115L24.8801 62.9271L44.3718 43.2334Z" fill="#FAA716"/>
<path d="M44.2896 95.4746L58.0477 30.0773H65.0279L51.2699 95.4746H44.2896Z" fill="#FAA716"/>
</svg>
